A 3D-animated movie set in Paris in the year 1910 and centered on a monster who lives in a garden and his love for a beautiful, young singer. Paris.

IMDB: 
http://www.imdb.com/title/tt0961097/



Information:
Format : Matroska
Format version : Version 2
File size : 2.17 GiB
Duration : 1h 31mn
Overall bit rate : 3 411 Kbps
Encoded date : UTC 2012-02-15 20:50:26
Writing application : mkvmerge v5.2.1 ('A Far Off Place') built on Jan 2 2012 23:21:10
Writing library : libebml v1.2.3 + libmatroska v1.3.0

Video
ID : 1
Format : AVC
Format/Info : Advanced Video Codec
Format profile : High@L5.1
Format settings, CABAC : Yes
Format settings, ReFrames : 6 frames
Muxing mode : Container profile=Unknown@0.0
Codec ID : V_MPEG4/ISO/AVC
Duration : 1h 31mn
Bit rate : 2 999 Kbps
Width : 1 280 pixels
Height : 688 pixels
Display aspect ratio : 1.860
Frame rate : 23.976 fps
Color space : YUV
Chroma subsampling : 4:2:0
Bit depth : 8 bits
Scan type : Progressive
Bits/(Pixel*Frame) : 0.142
Stream size : 1.84 GiB (85%)
Writing library : x264 core 120 r2164 da19765

Audio
ID : 2
Format : AC-3
Format/Info : Audio Coding 3
Mode extension : CM (complete main)
Codec ID : A_AC3
Duration : 1h 31mn
Bit rate mode : Constant
Bit rate : 448 Kbps
Channel(s) : 6 channels
Channel positions : Front: L C R, Side: L R, LFE
Sampling rate : 48.0 KHz
Bit depth : 16 bits
Compression mode : Lossy
Stream size : 292 MiB (13%)
Language : English

Used the FRENCH bluray video, and got the
english studio audio from the RC Bluray
Prefect untouched Video & Audio... Enjoy

Video Source > 1080p Bluray - HDC... Thanks
Audio Source > RC Bluray - Lum1x... Thanks

Enjoy!

Respects to 26K, DTRG, JCRG, GooN, ViSiON, SANTi, INSPiRAL, REFiLL, SiC...
And many others in the P2P and Scene world